# created by: Biturn ver 0.88
# http://mirex.mypage.sk
# ------------------------------------
# 72 vertices, 106 polygons, 318 points, 1 materials


mtllib Bench Long.mtl

#-- object 'Banch Long' --
# 72 vertices, 106 polygons, 318 points

g Banch Long

# vertexs: 72
v -65.333504 -13.200000 34.099998
v 65.333504 -13.200000 34.099998
v 65.333504 13.200000 34.099998
v -65.333504 13.200000 34.099998
v -67.148300 -14.652000 29.700001
v 67.148300 -14.652000 29.700001
v -67.148300 14.652000 29.700001
v 67.148300 14.652000 29.700001
v -65.333504 -13.200000 34.099998
v 65.333504 -13.200000 34.099998
v -65.333504 13.200000 34.099998
v 65.333504 13.200000 34.099998
v -60.500000 -11.000000 0.000000
v -49.500000 -11.000000 0.000000
v -60.500000 11.000000 0.000000
v -49.500000 11.000000 0.000000
v -60.500000 -11.000000 30.799999
v -49.500000 -11.000000 30.799999
v -60.500000 11.000000 30.799999
v -49.500000 11.000000 30.799999
v -60.500000 -11.000000 4.400000
v -49.500000 -11.000000 4.400000
v -49.500000 11.000000 4.400000
v -60.500000 11.000000 4.400000
v -57.938000 -5.876070 8.800000
v -52.062000 -5.876070 8.800000
v -52.062000 5.876070 8.800000
v -57.938000 5.876070 8.800000
v -60.500000 -11.000000 26.400000
v -49.500000 -11.000000 26.400000
v -49.500000 11.000000 26.400000
v -60.500000 11.000000 26.400000
v -5.500000 -11.000000 0.000000
v 5.500000 -11.000000 0.000000
v -5.500000 11.000000 0.000000
v 5.500000 11.000000 0.000000
v -5.500000 -11.000000 30.799999
v 5.500000 -11.000000 30.799999
v -5.500000 11.000000 30.799999
v 5.500000 11.000000 30.799999
v -5.500000 -11.000000 4.400000
v 5.500000 -11.000000 4.400000
v 5.500000 11.000000 4.400000
v -5.500000 11.000000 4.400000
v -2.938030 -5.876070 8.800000
v 2.938030 -5.876070 8.800000
v 2.938030 5.876070 8.800000
v -2.938030 5.876070 8.800000
v -5.500000 -11.000000 26.400000
v 5.500000 -11.000000 26.400000
v 5.500000 11.000000 26.400000
v -5.500000 11.000000 26.400000
v 49.500000 -11.000000 0.000000
v 60.500000 -11.000000 0.000000
v 49.500000 11.000000 0.000000
v 60.500000 11.000000 0.000000
v 49.500000 -11.000000 30.799999
v 60.500000 -11.000000 30.799999
v 49.500000 11.000000 30.799999
v 60.500000 11.000000 30.799999
v 49.500000 -11.000000 4.400000
v 60.500000 -11.000000 4.400000
v 60.500000 11.000000 4.400000
v 49.500000 11.000000 4.400000
v 52.062000 -5.876070 8.800000
v 57.938000 -5.876070 8.800000
v 57.938000 5.876070 8.800000
v 52.062000 5.876070 8.800000
v 49.500000 -11.000000 26.400000
v 60.500000 -11.000000 26.400000
v 60.500000 11.000000 26.400000
v 49.500000 11.000000 26.400000

# normals: 318
vn -0.462335 -0.237463 0.854317
vn 0.233500 -0.479717 0.845783
vn 0.462335 0.237463 0.854317
vn 0.462335 0.237463 0.854317
vn -0.233500 0.479717 0.845783
vn -0.462335 -0.237463 0.854317
vn -0.394981 -0.811474 0.430698
vn 0.789961 -0.405737 0.459716
vn 0.233500 -0.479717 0.845783
vn 0.233500 -0.479717 0.845783
vn -0.462335 -0.237463 0.854317
vn -0.394981 -0.811474 0.430698
vn 0.789961 -0.405737 0.459716
vn 0.394981 0.811474 0.430698
vn 0.462335 0.237463 0.854317
vn 0.462335 0.237463 0.854317
vn 0.233500 -0.479717 0.845783
vn 0.789961 -0.405737 0.459716
vn 0.394981 0.811474 0.430698
vn -0.789961 0.405737 0.459716
vn -0.233500 0.479717 0.845783
vn -0.233500 0.479717 0.845783
vn 0.462335 0.237463 0.854317
vn 0.394981 0.811474 0.430698
vn -0.789961 0.405737 0.459716
vn -0.394981 -0.811474 0.430698
vn -0.462335 -0.237463 0.854317
vn -0.462335 -0.237463 0.854317
vn -0.233500 0.479717 0.845783
vn -0.789961 0.405737 0.459716
vn -0.447214 -0.894427 0.000000
vn 0.894427 -0.447214 0.000000
vn 0.650538 -0.632208 0.420849
vn 0.650538 -0.632208 0.420849
vn -0.682923 -0.549108 0.481765
vn -0.447214 -0.894427 0.000000
vn -0.682923 -0.549108 0.481765
vn 0.650538 -0.632208 0.420849
vn 0.726506 -0.578251 0.371234
vn 0.726506 -0.578251 0.371234
vn -0.698773 -0.661193 0.273022
vn -0.682923 -0.549108 0.481765
vn -0.698773 -0.661193 0.273022
vn 0.726506 -0.578251 0.371234
vn 0.705435 -0.689084 -0.165908
vn 0.705435 -0.689084 -0.165908
vn -0.702974 -0.698490 -0.133940
vn -0.698773 -0.661193 0.273022
vn -0.702974 -0.698490 -0.133940
vn 0.705435 -0.689084 -0.165908
vn 0.447214 -0.894427 0.000000
vn 0.447214 -0.894427 0.000000
vn -0.894427 -0.447214 0.000000
vn -0.702974 -0.698490 -0.133940
vn 0.894427 -0.447214 0.000000
vn 0.447214 0.894427 0.000000
vn 0.682923 0.549108 0.481765
vn 0.682923 0.549108 0.481765
vn 0.650538 -0.632208 0.420849
vn 0.894427 -0.447214 0.000000
vn 0.650538 -0.632208 0.420849
vn 0.682923 0.549108 0.481765
vn 0.698773 0.661193 0.273022
vn 0.698773 0.661193 0.273022
vn 0.726506 -0.578251 0.371234
vn 0.650538 -0.632208 0.420849
vn 0.726506 -0.578251 0.371234
vn 0.698773 0.661193 0.273022
vn 0.702974 0.698490 -0.133940
vn 0.702974 0.698490 -0.133940
vn 0.705435 -0.689084 -0.165908
vn 0.726506 -0.578251 0.371234
vn 0.705435 -0.689084 -0.165908
vn 0.702974 0.698490 -0.133940
vn 0.894427 0.447214 0.000000
vn 0.894427 0.447214 0.000000
vn 0.447214 -0.894427 0.000000
vn 0.705435 -0.689084 -0.165908
vn 0.447214 0.894427 0.000000
vn -0.894427 0.447214 0.000000
vn -0.650538 0.632208 0.420849
vn -0.650538 0.632208 0.420849
vn 0.682923 0.549108 0.481765
vn 0.447214 0.894427 0.000000
vn 0.682923 0.549108 0.481765
vn -0.650538 0.632208 0.420849
vn -0.726506 0.578251 0.371234
vn -0.726506 0.578251 0.371234
vn 0.698773 0.661193 0.273022
vn 0.682923 0.549108 0.481765
vn 0.698773 0.661193 0.273022
vn -0.726506 0.578251 0.371234
vn -0.705435 0.689084 -0.165908
vn -0.705435 0.689084 -0.165908
vn 0.702974 0.698490 -0.133940
vn 0.698773 0.661193 0.273022
vn 0.702974 0.698490 -0.133940
vn -0.705435 0.689084 -0.165908
vn -0.447214 0.894427 0.000000
vn -0.447214 0.894427 0.000000
vn 0.894427 0.447214 0.000000
vn 0.702974 0.698490 -0.133940
vn -0.894427 0.447214 0.000000
vn -0.447214 -0.894427 0.000000
vn -0.682923 -0.549108 0.481765
vn -0.682923 -0.549108 0.481765
vn -0.650538 0.632208 0.420849
vn -0.894427 0.447214 0.000000
vn -0.650538 0.632208 0.420849
vn -0.682923 -0.549108 0.481765
vn -0.698773 -0.661193 0.273022
vn -0.698773 -0.661193 0.273022
vn -0.726506 0.578251 0.371234
vn -0.650538 0.632208 0.420849
vn -0.726506 0.578251 0.371234
vn -0.698773 -0.661193 0.273022
vn -0.702974 -0.698490 -0.133940
vn -0.702974 -0.698490 -0.133940
vn -0.705435 0.689084 -0.165908
vn -0.726506 0.578251 0.371234
vn -0.705435 0.689084 -0.165908
vn -0.702974 -0.698490 -0.133940
vn -0.894427 -0.447214 0.000000
vn -0.894427 -0.447214 0.000000
vn -0.447214 0.894427 0.000000
vn -0.705435 0.689084 -0.165908
vn -0.447214 -0.894427 0.000000
vn 0.894427 -0.447214 0.000000
vn 0.650539 -0.632208 0.420847
vn 0.650539 -0.632208 0.420847
vn -0.682923 -0.549108 0.481764
vn -0.447214 -0.894427 0.000000
vn -0.682923 -0.549108 0.481764
vn 0.650539 -0.632208 0.420847
vn 0.726506 -0.578251 0.371233
vn 0.726506 -0.578251 0.371233
vn -0.698774 -0.661192 0.273020
vn -0.682923 -0.549108 0.481764
vn -0.698774 -0.661192 0.273020
vn 0.726506 -0.578251 0.371233
vn 0.705435 -0.689084 -0.165908
vn 0.705435 -0.689084 -0.165908
vn -0.702974 -0.698490 -0.133940
vn -0.698774 -0.661192 0.273020
vn -0.702974 -0.698490 -0.133940
vn 0.705435 -0.689084 -0.165908
vn 0.447214 -0.894427 0.000000
vn 0.447214 -0.894427 0.000000
vn -0.894427 -0.447214 0.000000
vn -0.702974 -0.698490 -0.133940
vn 0.894427 -0.447214 0.000000
vn 0.447214 0.894427 0.000000
vn 0.682923 0.549108 0.481764
vn 0.682923 0.549108 0.481764
vn 0.650539 -0.632208 0.420847
vn 0.894427 -0.447214 0.000000
vn 0.650539 -0.632208 0.420847
vn 0.682923 0.549108 0.481764
vn 0.698774 0.661192 0.273020
vn 0.698774 0.661192 0.273020
vn 0.726506 -0.578251 0.371233
vn 0.650539 -0.632208 0.420847
vn 0.726506 -0.578251 0.371233
vn 0.698774 0.661192 0.273020
vn 0.702974 0.698490 -0.133940
vn 0.702974 0.698490 -0.133940
vn 0.705435 -0.689084 -0.165908
vn 0.726506 -0.578251 0.371233
vn 0.705435 -0.689084 -0.165908
vn 0.702974 0.698490 -0.133940
vn 0.894427 0.447214 0.000000
vn 0.894427 0.447214 0.000000
vn 0.447214 -0.894427 0.000000
vn 0.705435 -0.689084 -0.165908
vn 0.447214 0.894427 0.000000
vn -0.894427 0.447214 0.000000
vn -0.650539 0.632208 0.420847
vn -0.650539 0.632208 0.420847
vn 0.682923 0.549108 0.481764
vn 0.447214 0.894427 0.000000
vn 0.682923 0.549108 0.481764
vn -0.650539 0.632208 0.420847
vn -0.726506 0.578251 0.371233
vn -0.726506 0.578251 0.371233
vn 0.698774 0.661192 0.273020
vn 0.682923 0.549108 0.481764
vn 0.698774 0.661192 0.273020
vn -0.726506 0.578251 0.371233
vn -0.705435 0.689084 -0.165908
vn -0.705435 0.689084 -0.165908
vn 0.702974 0.698490 -0.133940
vn 0.698774 0.661192 0.273020
vn 0.702974 0.698490 -0.133940
vn -0.705435 0.689084 -0.165908
vn -0.447214 0.894427 0.000000
vn -0.447214 0.894427 0.000000
vn 0.894427 0.447214 0.000000
vn 0.702974 0.698490 -0.133940
vn -0.894427 0.447214 0.000000
vn -0.447214 -0.894427 0.000000
vn -0.682923 -0.549108 0.481764
vn -0.682923 -0.549108 0.481764
vn -0.650539 0.632208 0.420847
vn -0.894427 0.447214 0.000000
vn -0.650539 0.632208 0.420847
vn -0.682923 -0.549108 0.481764
vn -0.698774 -0.661192 0.273020
vn -0.698774 -0.661192 0.273020
vn -0.726506 0.578251 0.371233
vn -0.650539 0.632208 0.420847
vn -0.726506 0.578251 0.371233
vn -0.698774 -0.661192 0.273020
vn -0.702974 -0.698490 -0.133940
vn -0.702974 -0.698490 -0.133940
vn -0.705435 0.689084 -0.165908
vn -0.726506 0.578251 0.371233
vn -0.705435 0.689084 -0.165908
vn -0.702974 -0.698490 -0.133940
vn -0.894427 -0.447214 0.000000
vn -0.894427 -0.447214 0.000000
vn -0.447214 0.894427 0.000000
vn -0.705435 0.689084 -0.165908
vn -0.447214 -0.894427 0.000000
vn 0.894427 -0.447214 0.000000
vn 0.650538 -0.632208 0.420849
vn 0.650538 -0.632208 0.420849
vn -0.682923 -0.549108 0.481765
vn -0.447214 -0.894427 0.000000
vn -0.682923 -0.549108 0.481765
vn 0.650538 -0.632208 0.420849
vn 0.726506 -0.578251 0.371234
vn 0.726506 -0.578251 0.371234
vn -0.698773 -0.661193 0.273022
vn -0.682923 -0.549108 0.481765
vn -0.698773 -0.661193 0.273022
vn 0.726506 -0.578251 0.371234
vn 0.705435 -0.689084 -0.165908
vn 0.705435 -0.689084 -0.165908
vn -0.702974 -0.698490 -0.133940
vn -0.698773 -0.661193 0.273022
vn -0.702974 -0.698490 -0.133940
vn 0.705435 -0.689084 -0.165908
vn 0.447214 -0.894427 0.000000
vn 0.447214 -0.894427 0.000000
vn -0.894427 -0.447214 0.000000
vn -0.702974 -0.698490 -0.133940
vn 0.894427 -0.447214 0.000000
vn 0.447214 0.894427 0.000000
vn 0.682923 0.549108 0.481765
vn 0.682923 0.549108 0.481765
vn 0.650538 -0.632208 0.420849
vn 0.894427 -0.447214 0.000000
vn 0.650538 -0.632208 0.420849
vn 0.682923 0.549108 0.481765
vn 0.698773 0.661193 0.273022
vn 0.698773 0.661193 0.273022
vn 0.726506 -0.578251 0.371234
vn 0.650538 -0.632208 0.420849
vn 0.726506 -0.578251 0.371234
vn 0.698773 0.661193 0.273022
vn 0.702974 0.698490 -0.133940
vn 0.702974 0.698490 -0.133940
vn 0.705435 -0.689084 -0.165908
vn 0.726506 -0.578251 0.371234
vn 0.705435 -0.689084 -0.165908
vn 0.702974 0.698490 -0.133940
vn 0.894427 0.447214 0.000000
vn 0.894427 0.447214 0.000000
vn 0.447214 -0.894427 0.000000
vn 0.705435 -0.689084 -0.165908
vn 0.447214 0.894427 0.000000
vn -0.894427 0.447214 0.000000
vn -0.650538 0.632208 0.420849
vn -0.650538 0.632208 0.420849
vn 0.682923 0.549108 0.481765
vn 0.447214 0.894427 0.000000
vn 0.682923 0.549108 0.481765
vn -0.650538 0.632208 0.420849
vn -0.726506 0.578251 0.371234
vn -0.726506 0.578251 0.371234
vn 0.698773 0.661193 0.273022
vn 0.682923 0.549108 0.481765
vn 0.698773 0.661193 0.273022
vn -0.726506 0.578251 0.371234
vn -0.705435 0.689084 -0.165908
vn -0.705435 0.689084 -0.165908
vn 0.702974 0.698490 -0.133940
vn 0.698773 0.661193 0.273022
vn 0.702974 0.698490 -0.133940
vn -0.705435 0.689084 -0.165908
vn -0.447214 0.894427 0.000000
vn -0.447214 0.894427 0.000000
vn 0.894427 0.447214 0.000000
vn 0.702974 0.698490 -0.133940
vn -0.894427 0.447214 0.000000
vn -0.447214 -0.894427 0.000000
vn -0.682923 -0.549108 0.481765
vn -0.682923 -0.549108 0.481765
vn -0.650538 0.632208 0.420849
vn -0.894427 0.447214 0.000000
vn -0.650538 0.632208 0.420849
vn -0.682923 -0.549108 0.481765
vn -0.698773 -0.661193 0.273022
vn -0.698773 -0.661193 0.273022
vn -0.726506 0.578251 0.371234
vn -0.650538 0.632208 0.420849
vn -0.726506 0.578251 0.371234
vn -0.698773 -0.661193 0.273022
vn -0.702974 -0.698490 -0.133940
vn -0.702974 -0.698490 -0.133940
vn -0.705435 0.689084 -0.165908
vn -0.726506 0.578251 0.371234
vn -0.705435 0.689084 -0.165908
vn -0.702974 -0.698490 -0.133940
vn -0.894427 -0.447214 0.000000
vn -0.894427 -0.447214 0.000000
vn -0.447214 0.894427 0.000000
vn -0.705435 0.689084 -0.165908

# texture coords: 318
vt 0.593956 0.998392
vt 0.593956 0.249841
vt 0.680057 0.249841
vt 0.680057 0.249841
vt 0.680057 0.998392
vt 0.593956 0.998392
vt 0.545329 0.248345
vt 0.545268 0.999299
vt 0.594743 0.999243
vt 0.594743 0.999243
vt 0.594854 0.248612
vt 0.545329 0.248345
vt 0.545268 0.999299
vt 0.545268 0.248345
vt 0.594743 0.248612
vt 0.594743 0.248612
vt 0.594743 0.999243
vt 0.545268 0.999299
vt 0.545268 0.248345
vt 0.545329 0.999299
vt 0.594854 0.999243
vt 0.594854 0.999243
vt 0.594743 0.248612
vt 0.545268 0.248345
vt 0.545329 0.999299
vt 0.545329 0.248345
vt 0.594854 0.248612
vt 0.594854 0.248612
vt 0.594854 0.999243
vt 0.545329 0.999299
vt 0.545957 0.994857
vt 0.545957 0.250493
vt 0.594261 0.250558
vt 0.594261 0.250558
vt 0.594261 0.994775
vt 0.545957 0.994857
vt 0.594261 0.994775
vt 0.594261 0.250558
vt 0.681254 0.250684
vt 0.681254 0.250684
vt 0.681254 0.994615
vt 0.594261 0.994775
vt 0.681254 0.994615
vt 0.681254 0.250684
vt 0.594261 0.250558
vt 0.594261 0.250558
vt 0.594261 0.994775
vt 0.681254 0.994615
vt 0.594261 0.994775
vt 0.594261 0.250558
vt 0.545935 0.250493
vt 0.545935 0.250493
vt 0.545935 0.994858
vt 0.594261 0.994775
vt 0.545957 0.250493
vt 0.546042 0.994857
vt 0.594295 0.994775
vt 0.594295 0.994775
vt 0.594261 0.250558
vt 0.545957 0.250493
vt 0.594261 0.250558
vt 0.594295 0.994775
vt 0.681344 0.994615
vt 0.681344 0.994615
vt 0.681254 0.250684
vt 0.594261 0.250558
vt 0.681254 0.250684
vt 0.681344 0.994615
vt 0.594295 0.994775
vt 0.594295 0.994775
vt 0.594261 0.250558
vt 0.681254 0.250684
vt 0.594261 0.250558
vt 0.594295 0.994775
vt 0.546020 0.994858
vt 0.546020 0.994858
vt 0.545935 0.250493
vt 0.594261 0.250558
vt 0.546042 0.994857
vt 0.546042 0.250493
vt 0.594295 0.250558
vt 0.594295 0.250558
vt 0.594295 0.994775
vt 0.546042 0.994857
vt 0.594295 0.994775
vt 0.594295 0.250558
vt 0.681344 0.250684
vt 0.681344 0.250684
vt 0.681344 0.994615
vt 0.594295 0.994775
vt 0.681344 0.994615
vt 0.681344 0.250684
vt 0.594295 0.250558
vt 0.594295 0.250558
vt 0.594295 0.994775
vt 0.681344 0.994615
vt 0.594295 0.994775
vt 0.594295 0.250558
vt 0.546020 0.250493
vt 0.546020 0.250493
vt 0.546020 0.994858
vt 0.594295 0.994775
vt 0.546042 0.250493
vt 0.545957 0.994857
vt 0.594261 0.994775
vt 0.594261 0.994775
vt 0.594295 0.250558
vt 0.546042 0.250493
vt 0.594295 0.250558
vt 0.594261 0.994775
vt 0.681254 0.994615
vt 0.681254 0.994615
vt 0.681344 0.250684
vt 0.594295 0.250558
vt 0.681344 0.250684
vt 0.681254 0.994615
vt 0.594261 0.994775
vt 0.594261 0.994775
vt 0.594295 0.250558
vt 0.681344 0.250684
vt 0.594295 0.250558
vt 0.594261 0.994775
vt 0.545935 0.994858
vt 0.545935 0.994858
vt 0.546020 0.250493
vt 0.594295 0.250558
vt 0.545957 0.994857
vt 0.545957 0.250493
vt 0.594261 0.250558
vt 0.594261 0.250558
vt 0.594261 0.994775
vt 0.545957 0.994857
vt 0.594261 0.994775
vt 0.594261 0.250558
vt 0.681254 0.250684
vt 0.681254 0.250684
vt 0.681254 0.994615
vt 0.594261 0.994775
vt 0.681254 0.994615
vt 0.681254 0.250684
vt 0.594261 0.250558
vt 0.594261 0.250558
vt 0.594261 0.994775
vt 0.681254 0.994615
vt 0.594261 0.994775
vt 0.594261 0.250558
vt 0.545935 0.250493
vt 0.545935 0.250493
vt 0.545935 0.994858
vt 0.594261 0.994775
vt 0.545957 0.250493
vt 0.546042 0.994857
vt 0.594295 0.994775
vt 0.594295 0.994775
vt 0.594261 0.250558
vt 0.545957 0.250493
vt 0.594261 0.250558
vt 0.594295 0.994775
vt 0.681344 0.994615
vt 0.681344 0.994615
vt 0.681254 0.250684
vt 0.594261 0.250558
vt 0.681254 0.250684
vt 0.681344 0.994615
vt 0.594295 0.994775
vt 0.594295 0.994775
vt 0.594261 0.250558
vt 0.681254 0.250684
vt 0.594261 0.250558
vt 0.594295 0.994775
vt 0.546020 0.994858
vt 0.546020 0.994858
vt 0.545935 0.250493
vt 0.594261 0.250558
vt 0.546042 0.994857
vt 0.546042 0.250493
vt 0.594295 0.250558
vt 0.594295 0.250558
vt 0.594295 0.994775
vt 0.546042 0.994857
vt 0.594295 0.994775
vt 0.594295 0.250558
vt 0.681344 0.250684
vt 0.681344 0.250684
vt 0.681344 0.994615
vt 0.594295 0.994775
vt 0.681344 0.994615
vt 0.681344 0.250684
vt 0.594295 0.250558
vt 0.594295 0.250558
vt 0.594295 0.994775
vt 0.681344 0.994615
vt 0.594295 0.994775
vt 0.594295 0.250558
vt 0.546020 0.250493
vt 0.546020 0.250493
vt 0.546020 0.994858
vt 0.594295 0.994775
vt 0.546042 0.250493
vt 0.545957 0.994857
vt 0.594261 0.994775
vt 0.594261 0.994775
vt 0.594295 0.250558
vt 0.546042 0.250493
vt 0.594295 0.250558
vt 0.594261 0.994775
vt 0.681254 0.994615
vt 0.681254 0.994615
vt 0.681344 0.250684
vt 0.594295 0.250558
vt 0.681344 0.250684
vt 0.681254 0.994615
vt 0.594261 0.994775
vt 0.594261 0.994775
vt 0.594295 0.250558
vt 0.681344 0.250684
vt 0.594295 0.250558
vt 0.594261 0.994775
vt 0.545935 0.994858
vt 0.545935 0.994858
vt 0.546020 0.250493
vt 0.594295 0.250558
vt 0.545957 0.994857
vt 0.545957 0.250493
vt 0.594261 0.250558
vt 0.594261 0.250558
vt 0.594261 0.994775
vt 0.545957 0.994857
vt 0.594261 0.994775
vt 0.594261 0.250558
vt 0.681254 0.250684
vt 0.681254 0.250684
vt 0.681254 0.994615
vt 0.594261 0.994775
vt 0.681254 0.994615
vt 0.681254 0.250684
vt 0.594261 0.250558
vt 0.594261 0.250558
vt 0.594261 0.994775
vt 0.681254 0.994615
vt 0.594261 0.994775
vt 0.594261 0.250558
vt 0.545935 0.250493
vt 0.545935 0.250493
vt 0.545935 0.994858
vt 0.594261 0.994775
vt 0.545957 0.250493
vt 0.546042 0.994857
vt 0.594295 0.994775
vt 0.594295 0.994775
vt 0.594261 0.250558
vt 0.545957 0.250493
vt 0.594261 0.250558
vt 0.594295 0.994775
vt 0.681344 0.994615
vt 0.681344 0.994615
vt 0.681254 0.250684
vt 0.594261 0.250558
vt 0.681254 0.250684
vt 0.681344 0.994615
vt 0.594295 0.994775
vt 0.594295 0.994775
vt 0.594261 0.250558
vt 0.681254 0.250684
vt 0.594261 0.250558
vt 0.594295 0.994775
vt 0.546020 0.994858
vt 0.546020 0.994858
vt 0.545935 0.250493
vt 0.594261 0.250558
vt 0.546042 0.994857
vt 0.546042 0.250493
vt 0.594295 0.250558
vt 0.594295 0.250558
vt 0.594295 0.994775
vt 0.546042 0.994857
vt 0.594295 0.994775
vt 0.594295 0.250558
vt 0.681344 0.250684
vt 0.681344 0.250684
vt 0.681344 0.994615
vt 0.594295 0.994775
vt 0.681344 0.994615
vt 0.681344 0.250684
vt 0.594295 0.250558
vt 0.594295 0.250558
vt 0.594295 0.994775
vt 0.681344 0.994615
vt 0.594295 0.994775
vt 0.594295 0.250558
vt 0.546020 0.250493
vt 0.546020 0.250493
vt 0.546020 0.994858
vt 0.594295 0.994775
vt 0.546042 0.250493
vt 0.545957 0.994857
vt 0.594261 0.994775
vt 0.594261 0.994775
vt 0.594295 0.250558
vt 0.546042 0.250493
vt 0.594295 0.250558
vt 0.594261 0.994775
vt 0.681254 0.994615
vt 0.681254 0.994615
vt 0.681344 0.250684
vt 0.594295 0.250558
vt 0.681344 0.250684
vt 0.681254 0.994615
vt 0.594261 0.994775
vt 0.594261 0.994775
vt 0.594295 0.250558
vt 0.681344 0.250684
vt 0.594295 0.250558
vt 0.594261 0.994775
vt 0.545935 0.994858
vt 0.545935 0.994858
vt 0.546020 0.250493
vt 0.594295 0.250558

# polygons: 106
usemtl GardenProps1
f 1/1/1 2/2/2 3/3/3
f 3/4/4 4/5/5 1/6/6
f 5/7/7 6/8/8 10/9/9
f 10/10/10 9/11/11 5/12/12
f 6/13/13 8/14/14 12/15/15
f 12/16/16 10/17/17 6/18/18
f 8/19/19 7/20/20 11/21/21
f 11/22/22 12/23/23 8/24/24
f 7/25/25 5/26/26 9/27/27
f 9/28/28 11/29/29 7/30/30
f 13/31/31 14/32/32 22/33/33
f 22/34/34 21/35/35 13/36/36
f 21/37/37 22/38/38 26/39/39
f 26/40/40 25/41/41 21/42/42
f 25/43/43 26/44/44 30/45/45
f 30/46/46 29/47/47 25/48/48
f 29/49/49 30/50/50 18/51/51
f 18/52/52 17/53/53 29/54/54
f 14/55/55 16/56/56 23/57/57
f 23/58/58 22/59/59 14/60/60
f 22/61/61 23/62/62 27/63/63
f 27/64/64 26/65/65 22/66/66
f 26/67/67 27/68/68 31/69/69
f 31/70/70 30/71/71 26/72/72
f 30/73/73 31/74/74 20/75/75
f 20/76/76 18/77/77 30/78/78
f 16/79/79 15/80/80 24/81/81
f 24/82/82 23/83/83 16/84/84
f 23/85/85 24/86/86 28/87/87
f 28/88/88 27/89/89 23/90/90
f 27/91/91 28/92/92 32/93/93
f 32/94/94 31/95/95 27/96/96
f 31/97/97 32/98/98 19/99/99
f 19/100/100 20/101/101 31/102/102
f 15/103/103 13/104/104 21/105/105
f 21/106/106 24/107/107 15/108/108
f 24/109/109 21/110/110 25/111/111
f 25/112/112 28/113/113 24/114/114
f 28/115/115 25/116/116 29/117/117
f 29/118/118 32/119/119 28/120/120
f 32/121/121 29/122/122 17/123/123
f 17/124/124 19/125/125 32/126/126
f 33/127/127 34/128/128 42/129/129
f 42/130/130 41/131/131 33/132/132
f 41/133/133 42/134/134 46/135/135
f 46/136/136 45/137/137 41/138/138
f 45/139/139 46/140/140 50/141/141
f 50/142/142 49/143/143 45/144/144
f 49/145/145 50/146/146 38/147/147
f 38/148/148 37/149/149 49/150/150
f 34/151/151 36/152/152 43/153/153
f 43/154/154 42/155/155 34/156/156
f 42/157/157 43/158/158 47/159/159
f 47/160/160 46/161/161 42/162/162
f 46/163/163 47/164/164 51/165/165
f 51/166/166 50/167/167 46/168/168
f 50/169/169 51/170/170 40/171/171
f 40/172/172 38/173/173 50/174/174
f 36/175/175 35/176/176 44/177/177
f 44/178/178 43/179/179 36/180/180
f 43/181/181 44/182/182 48/183/183
f 48/184/184 47/185/185 43/186/186
f 47/187/187 48/188/188 52/189/189
f 52/190/190 51/191/191 47/192/192
f 51/193/193 52/194/194 39/195/195
f 39/196/196 40/197/197 51/198/198
f 35/199/199 33/200/200 41/201/201
f 41/202/202 44/203/203 35/204/204
f 44/205/205 41/206/206 45/207/207
f 45/208/208 48/209/209 44/210/210
f 48/211/211 45/212/212 49/213/213
f 49/214/214 52/215/215 48/216/216
f 52/217/217 49/218/218 37/219/219
f 37/220/220 39/221/221 52/222/222
f 53/223/223 54/224/224 62/225/225
f 62/226/226 61/227/227 53/228/228
f 61/229/229 62/230/230 66/231/231
f 66/232/232 65/233/233 61/234/234
f 65/235/235 66/236/236 70/237/237
f 70/238/238 69/239/239 65/240/240
f 69/241/241 70/242/242 58/243/243
f 58/244/244 57/245/245 69/246/246
f 54/247/247 56/248/248 63/249/249
f 63/250/250 62/251/251 54/252/252
f 62/253/253 63/254/254 67/255/255
f 67/256/256 66/257/257 62/258/258
f 66/259/259 67/260/260 71/261/261
f 71/262/262 70/263/263 66/264/264
f 70/265/265 71/266/266 60/267/267
f 60/268/268 58/269/269 70/270/270
f 56/271/271 55/272/272 64/273/273
f 64/274/274 63/275/275 56/276/276
f 63/277/277 64/278/278 68/279/279
f 68/280/280 67/281/281 63/282/282
f 67/283/283 68/284/284 72/285/285
f 72/286/286 71/287/287 67/288/288
f 71/289/289 72/290/290 59/291/291
f 59/292/292 60/293/293 71/294/294
f 55/295/295 53/296/296 61/297/297
f 61/298/298 64/299/299 55/300/300
f 64/301/301 61/302/302 65/303/303
f 65/304/304 68/305/305 64/306/306
f 68/307/307 65/308/308 69/309/309
f 69/310/310 72/311/311 68/312/312
f 72/313/313 69/314/314 57/315/315
f 57/316/316 59/317/317 72/318/318

# object end 'Banch Long'
