# created by: Biturn ver 0.88
# http://mirex.mypage.sk
# ------------------------------------
# 64 vertices, 36 polygons, 108 points, 1 materials


mtllib Column1b.mtl

#-- object '3segs Cube' --
# 64 vertices, 36 polygons, 108 points

g 3segs Cube

# vertexs: 64
v 8.830301 -8.943783 17.911688
v 8.894726 9.020238 17.911688
v -8.658360 -8.943783 17.911688
v -8.658360 9.020238 17.911688
v 7.491894 7.233068 17.911688
v 7.491894 7.233068 85.581841
v -7.129666 7.233068 17.911688
v -7.129666 7.233068 85.581841
v -8.658360 9.020238 85.581841
v 8.894726 9.020238 85.581841
v 13.883784 13.820095 102.857201
v -13.819415 13.820095 102.857201
v 7.491894 -7.158082 17.911688
v -7.129666 -7.158082 17.911688
v -7.129666 -7.158082 85.581841
v 7.491894 -7.158082 85.581841
v 8.830301 -8.943783 85.581841
v -8.658360 -8.943783 85.581841
v -13.819415 -13.989875 102.857201
v 13.883784 -13.989875 102.857201
v 7.491894 7.233068 17.911688
v 7.491894 -7.158082 17.911688
v 7.491894 -7.158082 85.581841
v 7.491894 7.233068 85.581841
v 8.830301 -8.943783 85.581841
v 13.883784 -13.989875 102.857201
v 8.894726 9.020238 85.581841
v 13.883784 13.820095 102.857201
v -7.129666 -7.158082 17.911688
v -7.129666 7.233068 17.911688
v -7.129666 7.233068 85.581841
v -7.129666 -7.158082 85.581841
v -8.658360 -8.943783 85.581841
v -8.658360 9.020238 85.581841
v -13.819415 13.820095 102.857201
v -13.819415 -13.989875 102.857201
v 13.883784 -13.989875 102.857201
v 13.883784 13.820095 102.857201
v -13.819415 -13.989875 102.857201
v -13.819415 13.820095 102.857201
v -8.658360 -8.943783 17.911688
v 8.830301 -8.943783 17.911688
v 13.883784 -13.989875 -0.137680
v -13.819415 -13.989875 -0.137680
v 8.894726 9.020238 17.911688
v -8.658360 9.020238 17.911688
v -13.819415 13.820095 -0.137680
v 13.883784 13.820095 -0.137680
v 8.894726 9.020238 17.911688
v 13.883784 13.820095 -0.137680
v 8.830301 -8.943783 17.911688
v 13.883784 -13.989875 -0.137680
v -8.658360 9.020238 17.911688
v -8.658360 -8.943783 17.911688
v -13.819415 -13.989875 -0.137680
v -13.819415 13.820095 -0.137680
v 13.883784 13.820095 -0.137680
v 13.883784 -13.989875 -0.137680
v -13.819415 13.820095 -0.137680
v -13.819415 -13.989875 -0.137680
v 8.894726 9.020238 85.581841
v 8.830301 -8.943783 85.581841
v -8.658360 9.020238 85.581841
v -8.658360 -8.943783 85.581841

# normals: 108
vn 0.019965 0.006134 0.999782
vn 0.019934 0.019035 0.999620
vn 0.013391 0.019035 0.999729
vn 0.013391 0.019035 0.999729
vn 0.013421 0.006134 0.999891
vn 0.019965 0.006134 0.999782
vn 0.049637 0.998761 0.003650
vn -0.041960 0.999113 0.003650
vn -0.041959 0.999116 -0.002720
vn -0.041959 0.999116 -0.002720
vn 0.049638 0.998764 -0.002720
vn 0.049637 0.998761 0.003650
vn -0.028994 0.999420 -0.017866
vn 0.010266 0.999788 -0.017866
vn 0.082142 0.996620 0.001472
vn 0.082142 0.996620 0.001472
vn 0.056025 0.998428 0.001472
vn -0.028994 0.999420 -0.017866
vn 0.049637 0.998761 0.003650
vn 0.049637 0.998761 0.003650
vn 0.049637 0.998761 0.003650
vn 0.049637 0.998761 0.003650
vn 0.049637 0.998761 0.003650
vn 0.049637 0.998761 0.003650
vn -0.009880 -0.999923 -0.007563
vn -0.009880 -0.999923 -0.007563
vn -0.009886 -0.999738 -0.020640
vn -0.009886 -0.999738 -0.020640
vn -0.009886 -0.999738 -0.020640
vn -0.009880 -0.999923 -0.007563
vn -0.089281 -0.991774 -0.091728
vn -0.089281 -0.991774 -0.091728
vn -0.089281 -0.995981 -0.007113
vn -0.089281 -0.995981 -0.007113
vn -0.089281 -0.995981 -0.007113
vn -0.089281 -0.991774 -0.091728
vn 0.999078 0.041400 0.011374
vn 0.998564 -0.053248 0.005927
vn 0.999991 0.002662 -0.003422
vn 0.999991 0.002662 -0.003422
vn 0.999746 0.022295 -0.003422
vn 0.999078 0.041400 0.011374
vn 0.998947 0.004689 -0.045640
vn 0.994935 0.089565 -0.045640
vn 0.999079 0.017745 0.039077
vn 0.999079 0.017745 0.039077
vn 0.999173 0.011205 0.039077
vn 0.998947 0.004689 -0.045640
vn 0.998564 -0.053248 0.005927
vn 0.998564 -0.053248 0.005927
vn 0.998564 -0.053248 0.005927
vn 0.998564 -0.053248 0.005927
vn 0.998564 -0.053248 0.005927
vn 0.998564 -0.053248 0.005927
vn -0.999986 0.004364 -0.003130
vn -0.999986 0.004364 -0.003130
vn -0.999594 0.004483 0.028140
vn -0.999594 0.004483 0.028140
vn -0.999594 0.004483 0.028140
vn -0.999986 0.004364 -0.003130
vn -0.999127 0.024176 -0.034073
vn -0.999127 0.024176 -0.034073
vn -0.999541 0.024176 0.018264
vn -0.999541 0.024176 0.018264
vn -0.999541 0.024176 0.018264
vn -0.999127 0.024176 -0.034073
vn -0.007574 -0.012122 0.999898
vn -0.007574 -0.012122 0.999898
vn -0.007574 -0.012122 0.999898
vn -0.007574 -0.012122 0.999898
vn -0.007574 -0.012122 0.999898
vn -0.007574 -0.012122 0.999898
vn -0.028994 -0.999420 0.017866
vn 0.010266 -0.999788 0.017866
vn 0.082142 -0.996620 -0.001472
vn 0.082142 -0.996620 -0.001472
vn 0.056025 -0.998428 -0.001472
vn -0.028994 -0.999420 0.017866
vn -0.030740 0.995309 0.091728
vn -0.089281 0.991774 0.091728
vn -0.089281 0.995981 0.007113
vn -0.089281 0.995981 0.007113
vn -0.010862 0.999916 0.007113
vn -0.030740 0.995309 0.091728
vn 0.998947 -0.004689 0.045640
vn 0.994935 -0.089565 0.045640
vn 0.999079 -0.017745 -0.039077
vn 0.999079 -0.017745 -0.039077
vn 0.999173 -0.011205 -0.039077
vn 0.998947 -0.004689 0.045640
vn -0.999127 -0.024176 0.034073
vn -0.998817 0.034685 0.034073
vn -0.998356 0.054321 -0.018264
vn -0.998356 0.054321 -0.018264
vn -0.999541 -0.024176 -0.018264
vn -0.999127 -0.024176 0.034073
vn -0.007574 0.012122 -0.999898
vn -0.007574 0.012122 -0.999898
vn -0.007574 0.012122 -0.999898
vn -0.007574 0.012122 -0.999898
vn -0.006599 0.012678 -0.999898
vn -0.007574 0.012122 -0.999898
vn 0.019965 0.013496 -0.999710
vn 0.019934 0.033307 -0.999246
vn 0.013391 0.033313 -0.999355
vn 0.013391 0.033313 -0.999355
vn 0.013421 0.013498 -0.999819
vn 0.019965 0.013496 -0.999710

# texture coords: 108
vt 0.200685 0.648755
vt 0.284976 0.649064
vt 0.284976 0.564773
vt 0.284976 0.564773
vt 0.200685 0.564773
vt 0.200685 0.648755
vt 0.730805 0.763219
vt 0.557242 0.763236
vt 0.555377 0.995533
vt 0.555377 0.995533
vt 0.730754 0.995928
vt 0.730805 0.763219
vt 0.209201 0.870542
vt 0.210792 0.744092
vt 0.367238 0.746687
vt 0.367238 0.746687
vt 0.367689 0.871334
vt 0.209201 0.870542
vt 0.730805 0.763219
vt 0.730805 0.763219
vt 0.730805 0.763219
vt 0.730805 0.763219
vt 0.730805 0.763219
vt 0.730805 0.763219
vt 0.557200 0.763177
vt 0.730903 0.763158
vt 0.730791 0.995905
vt 0.730791 0.995905
vt 0.555502 0.995439
vt 0.557200 0.763177
vt 0.209242 0.870541
vt 0.210840 0.744153
vt 0.367234 0.746691
vt 0.367234 0.746691
vt 0.367688 0.871332
vt 0.209242 0.870541
vt 0.730903 0.763158
vt 0.557198 0.763183
vt 0.555521 0.995499
vt 0.555521 0.995499
vt 0.730791 0.995905
vt 0.730903 0.763158
vt 0.210840 0.744153
vt 0.209217 0.870534
vt 0.367658 0.871341
vt 0.367658 0.871341
vt 0.367234 0.746691
vt 0.210840 0.744153
vt 0.557198 0.763183
vt 0.557198 0.763183
vt 0.557198 0.763183
vt 0.557198 0.763183
vt 0.557198 0.763183
vt 0.557198 0.763183
vt 0.730915 0.763158
vt 0.557200 0.763177
vt 0.555502 0.995439
vt 0.555502 0.995439
vt 0.730792 0.995912
vt 0.730915 0.763158
vt 0.210792 0.744092
vt 0.209242 0.870541
vt 0.367688 0.871332
vt 0.367688 0.871332
vt 0.367238 0.746687
vt 0.210792 0.744092
vt 0.209507 0.939029
vt 0.285490 0.939029
vt 0.285490 0.702307
vt 0.285490 0.702307
vt 0.208367 0.703291
vt 0.209507 0.939029
vt 0.209201 0.870542
vt 0.210792 0.744092
vt 0.367238 0.746687
vt 0.367238 0.746687
vt 0.367689 0.871334
vt 0.209201 0.870542
vt 0.209242 0.870541
vt 0.210840 0.744153
vt 0.367234 0.746691
vt 0.367234 0.746691
vt 0.367688 0.871332
vt 0.209242 0.870541
vt 0.210840 0.744153
vt 0.209217 0.870534
vt 0.367658 0.871341
vt 0.367658 0.871341
vt 0.367234 0.746691
vt 0.210840 0.744153
vt 0.210792 0.744092
vt 0.209242 0.870541
vt 0.367688 0.871332
vt 0.367688 0.871332
vt 0.367238 0.746687
vt 0.210792 0.744092
vt 0.209507 0.939029
vt 0.285490 0.939029
vt 0.285490 0.702307
vt 0.285490 0.702307
vt 0.208367 0.703291
vt 0.209507 0.939029
vt 0.284976 0.649064
vt 0.200685 0.648755
vt 0.200685 0.564773
vt 0.200685 0.564773
vt 0.284976 0.564773
vt 0.284976 0.649064

# polygons: 36
usemtl Ruinsdoodads1
f 1/1/1 2/2/2 4/3/3
f 4/4/4 3/5/5 1/6/6
f 5/7/7 7/8/8 8/9/9
f 8/10/10 6/11/11 5/12/12
f 10/13/13 9/14/14 12/15/15
f 12/16/16 11/17/17 10/18/18
f 5/19/19 5/20/20 5/21/21
f 5/22/22 5/23/23 5/24/24
f 14/25/25 13/26/26 16/27/27
f 16/28/28 15/29/29 14/30/30
f 18/31/31 17/32/32 20/33/33
f 20/34/34 19/35/35 18/36/36
f 22/37/37 21/38/38 24/39/39
f 24/40/40 23/41/41 22/42/42
f 25/43/43 27/44/44 28/45/45
f 28/46/46 26/47/47 25/48/48
f 21/49/49 21/50/50 21/51/51
f 21/52/52 21/53/53 21/54/54
f 30/55/55 29/56/56 32/57/57
f 32/58/58 31/59/59 30/60/60
f 34/61/61 33/62/62 36/63/63
f 36/64/64 35/65/65 34/66/66
f 37/67/67 38/68/68 40/69/69
f 40/70/70 39/71/71 37/72/72
f 42/73/73 41/74/74 44/75/75
f 44/76/76 43/77/77 42/78/78
f 46/79/79 45/80/80 48/81/81
f 48/82/82 47/83/83 46/84/84
f 49/85/85 51/86/86 52/87/87
f 52/88/88 50/89/89 49/90/90
f 54/91/91 53/92/92 56/93/93
f 56/94/94 55/95/95 54/96/96
f 57/97/97 58/98/98 60/99/99
f 60/100/100 59/101/101 57/102/102
f 61/103/103 62/104/104 64/105/105
f 64/106/106 63/107/107 61/108/108

# object end '3segs Cube'
