# created by: Biturn ver 0.88
# http://mirex.mypage.sk
# ------------------------------------
# 50 vertices, 80 polygons, 240 points, 1 materials


mtllib muro30g2.mtl

#-- object '3segs Cube' --
# 50 vertices, 80 polygons, 240 points

g 3segs Cube

# vertexs: 50
v -32.653603 22.191820 88.041878
v 32.659599 22.191820 61.821098
v -32.653603 8.256870 52.176575
v 32.659599 8.256870 25.955799
v -32.653603 22.191820 74.264877
v 32.659599 22.191820 48.044102
v -32.653603 8.256870 26.009565
v -32.653603 8.256870 26.009565
v 32.659599 8.256870 -0.211210
v -32.653603 8.256870 52.176575
v 32.659599 8.256870 25.955799
v 32.659599 22.191820 61.821098
v 32.659599 -8.910070 61.821098
v 32.659599 -8.910070 25.955799
v 32.659599 8.256870 25.955799
v 32.659599 -8.910070 48.044102
v 32.659599 22.191820 48.044102
v 32.659599 8.256870 -0.211210
v 32.659599 -8.910070 -0.211210
v 32.659599 -8.910070 25.955799
v 32.659599 8.256870 25.955799
v -32.653603 22.191820 88.041878
v -32.653603 -8.910070 88.041878
v -32.653603 8.256870 52.176575
v -32.653603 -8.910070 52.176575
v -32.653603 22.191820 74.264877
v -32.653603 -8.910070 74.264877
v -32.653603 8.256870 26.009565
v -32.653603 -8.910070 26.009565
v -32.653603 8.256870 52.176575
v -32.653603 -8.910070 52.176575
v 32.659599 -8.910070 61.821098
v -32.653603 -8.910070 88.041878
v 32.659599 -8.910070 25.955799
v -32.653603 -8.910070 52.176575
v 32.659599 -8.910070 48.044102
v -32.653603 -8.910070 74.264877
v 32.659599 -8.910070 -0.211210
v 32.659599 -8.910070 -0.211210
v -32.653603 -8.910070 26.009565
v 32.659599 -8.910070 25.955799
v -32.653603 -8.910070 52.176575
v 32.659599 -8.910070 -0.211210
v -32.653603 -8.910070 26.009565
v -32.653603 8.256870 26.009565
v 32.659599 8.256870 -0.211210
v -32.653603 -8.910070 88.041878
v 32.659599 -8.910070 61.821098
v -32.653603 22.191820 88.041878
v 32.659599 22.191820 61.821098

# normals: 240
vn 0.019998 0.999622 0.018878
vn 0.019998 0.999622 0.018878
vn 0.019998 0.996247 0.084216
vn 0.019998 0.996247 0.084216
vn 0.019998 0.996247 0.084216
vn 0.019998 0.999622 0.018878
vn 0.019998 0.999622 0.018878
vn 0.019998 0.999622 0.018878
vn 0.019998 0.996247 0.084216
vn 0.019998 0.996247 0.084216
vn 0.019998 0.996247 0.084216
vn 0.019998 0.999622 0.018878
vn 0.019998 0.999622 0.018878
vn 0.019998 0.999622 0.018878
vn 0.019998 0.996247 0.084216
vn 0.019998 0.996247 0.084216
vn 0.019998 0.996247 0.084216
vn 0.019998 0.999622 0.018878
vn 0.019998 0.996247 0.084216
vn 0.019998 0.996247 0.084216
vn 0.014466 0.999477 0.028929
vn 0.014466 0.999477 0.028929
vn 0.014466 0.999477 0.028929
vn 0.019998 0.996247 0.084216
vn 0.019998 0.996247 0.084216
vn 0.019998 0.996247 0.084216
vn 0.014466 0.999477 0.028929
vn 0.014466 0.999477 0.028929
vn 0.014466 0.999477 0.028929
vn 0.019998 0.996247 0.084216
vn 0.019998 0.996247 0.084216
vn 0.019998 0.996247 0.084216
vn 0.017052 0.999477 0.027484
vn 0.017052 0.999477 0.027484
vn 0.014466 0.999477 0.028929
vn 0.019998 0.996247 0.084216
vn 0.019998 0.999773 -0.007295
vn 0.019998 0.999773 -0.007295
vn 0.019998 0.999622 0.018878
vn 0.019998 0.999622 0.018878
vn 0.019998 0.999622 0.018878
vn 0.019998 0.999773 -0.007295
vn 0.019998 0.999773 -0.007295
vn 0.019998 0.999773 -0.007295
vn 0.019998 0.999622 0.018878
vn 0.019998 0.999622 0.018878
vn 0.019998 0.999622 0.018878
vn 0.019998 0.999773 -0.007295
vn 0.019998 0.999773 -0.007295
vn 0.019998 0.999773 -0.007295
vn 0.019998 0.999622 0.018878
vn 0.019998 0.999622 0.018878
vn 0.019998 0.999622 0.018878
vn 0.019998 0.999773 -0.007295
vn 0.999287 0.034505 0.015302
vn 0.999750 0.016487 0.015111
vn 0.996564 -0.055579 0.061404
vn 0.996564 -0.055579 0.061404
vn 0.997538 0.034505 0.061052
vn 0.999287 0.034505 0.015302
vn 0.997538 0.034505 0.061052
vn 0.996564 -0.055579 0.061404
vn 0.997283 -0.055579 0.048354
vn 0.997283 -0.055579 0.048354
vn 0.998252 0.034505 0.047990
vn 0.997538 0.034505 0.061052
vn 0.999366 0.034505 0.008762
vn 0.999827 0.016487 0.008567
vn 0.999750 0.016487 0.015111
vn 0.999750 0.016487 0.015111
vn 0.999287 0.034505 0.015302
vn 0.999366 0.034505 0.008762
vn -0.999547 -0.021046 0.021538
vn -0.999663 -0.014503 0.021538
vn -0.999079 -0.014330 0.040433
vn -0.999079 -0.014330 0.040433
vn -0.999152 -0.007791 0.040433
vn -0.999547 -0.021046 0.021538
vn -0.999152 -0.007791 0.040433
vn -0.999079 -0.014330 0.040433
vn -0.998806 -0.014249 0.046729
vn -0.998806 -0.014249 0.046729
vn -0.998878 -0.007712 0.046729
vn -0.999152 -0.007791 0.040433
vn -0.999162 -0.020929 -0.035170
vn -0.999278 -0.014389 -0.035170
vn -0.999663 -0.014503 0.021538
vn -0.999663 -0.014503 0.021538
vn -0.999547 -0.021046 0.021538
vn -0.999162 -0.020929 -0.035170
vn -0.998878 -0.007712 0.046729
vn -0.998878 -0.007712 0.046729
vn -0.998878 -0.007712 0.046729
vn -0.998878 -0.007712 0.046729
vn -0.998878 -0.007712 0.046729
vn -0.998878 -0.007712 0.046729
vn -0.998878 -0.007712 0.046729
vn -0.998878 -0.007712 0.046729
vn -0.998878 -0.007712 0.046729
vn -0.998878 -0.007712 0.046729
vn -0.998878 -0.007712 0.046729
vn -0.998878 -0.007712 0.046729
vn -0.998878 -0.007712 0.046729
vn -0.998878 -0.007712 0.046729
vn -0.998878 -0.007712 0.046729
vn -0.998878 -0.007712 0.046729
vn -0.998878 -0.007712 0.046729
vn -0.998878 -0.007712 0.046729
vn -0.998878 -0.007712 0.046729
vn -0.998878 -0.007712 0.046729
vn -0.998878 -0.007712 0.046729
vn -0.998878 -0.007712 0.046729
vn -0.998878 -0.007712 0.046729
vn -0.998878 -0.007712 0.046729
vn -0.998878 -0.007712 0.046729
vn -0.998878 -0.007712 0.046729
vn -0.998878 -0.007712 0.046729
vn -0.998878 -0.007712 0.046729
vn -0.998878 -0.007712 0.046729
vn -0.998878 -0.007712 0.046729
vn -0.998878 -0.007712 0.046729
vn -0.998878 -0.007712 0.046729
vn -0.998878 -0.007712 0.046729
vn -0.998878 -0.007712 0.046729
vn -0.998878 -0.007712 0.046729
vn -0.998878 -0.007712 0.046729
vn -0.998878 -0.007712 0.046729
vn -0.998878 -0.007712 0.046729
vn -0.998878 -0.007712 0.046729
vn -0.998878 -0.007712 0.046729
vn -0.998878 -0.007712 0.046729
vn -0.998878 -0.007712 0.046729
vn -0.998878 -0.007712 0.046729
vn -0.998878 -0.007712 0.046729
vn -0.998878 -0.007712 0.046729
vn -0.998878 -0.007712 0.046729
vn -0.998878 -0.007712 0.046729
vn -0.998878 -0.007712 0.046729
vn -0.998878 -0.007712 0.046729
vn -0.998878 -0.007712 0.046729
vn -0.998878 -0.007712 0.046729
vn -0.998878 -0.007712 0.046729
vn -0.998878 -0.007712 0.046729
vn -0.998878 -0.007712 0.046729
vn -0.998878 -0.007712 0.046729
vn -0.998878 -0.007712 0.046729
vn -0.998878 -0.007712 0.046729
vn -0.998878 -0.007712 0.046729
vn -0.998878 -0.007712 0.046729
vn -0.998878 -0.007712 0.046729
vn -0.998878 -0.007712 0.046729
vn -0.998878 -0.007712 0.046729
vn -0.998878 -0.007712 0.046729
vn -0.998878 -0.007712 0.046729
vn -0.998878 -0.007712 0.046729
vn -0.998878 -0.007712 0.046729
vn -0.998878 -0.007712 0.046729
vn -0.998878 -0.007712 0.046729
vn -0.998878 -0.007712 0.046729
vn -0.998878 -0.007712 0.046729
vn -0.998878 -0.007712 0.046729
vn -0.998878 -0.007712 0.046729
vn -0.998878 -0.007712 0.046729
vn -0.998878 -0.007712 0.046729
vn -0.998878 -0.007712 0.046729
vn -0.998878 -0.007712 0.046729
vn -0.998878 -0.007712 0.046729
vn -0.998878 -0.007712 0.046729
vn 0.047434 -0.997777 -0.046806
vn 0.047434 -0.997777 -0.046806
vn 0.047434 -0.997874 0.044689
vn 0.047434 -0.997874 0.044689
vn 0.047434 -0.997874 0.044689
vn 0.047434 -0.997777 -0.046806
vn 0.047434 -0.997777 -0.046806
vn 0.047434 -0.997777 -0.046806
vn 0.047434 -0.997874 0.044689
vn 0.047434 -0.997874 0.044689
vn 0.047434 -0.997874 0.044689
vn 0.047434 -0.997777 -0.046806
vn 0.047434 -0.997777 -0.046806
vn 0.003184 -0.998882 -0.047157
vn 0.003184 -0.999007 0.044441
vn 0.003184 -0.999007 0.044441
vn 0.047434 -0.997874 0.044689
vn 0.047434 -0.997777 -0.046806
vn 0.047434 -0.997874 0.044689
vn 0.047434 -0.997874 0.044689
vn 0.043630 -0.998374 0.036695
vn 0.043630 -0.998374 0.036695
vn 0.043630 -0.998374 0.036695
vn 0.047434 -0.997874 0.044689
vn 0.047434 -0.997874 0.044689
vn 0.047434 -0.997874 0.044689
vn 0.043630 -0.998374 0.036695
vn 0.043630 -0.998374 0.036695
vn 0.043630 -0.998374 0.036695
vn 0.047434 -0.997874 0.044689
vn 0.047434 -0.997874 0.044689
vn 0.003184 -0.999007 0.044441
vn -0.003201 -0.999503 0.031358
vn -0.003201 -0.999503 0.031358
vn 0.043630 -0.998374 0.036695
vn 0.047434 -0.997874 0.044689
vn 0.047434 -0.998802 0.012016
vn 0.003184 -0.999926 0.011730
vn 0.047434 -0.997777 -0.046806
vn 0.047434 -0.997777 -0.046806
vn 0.047434 -0.997777 -0.046806
vn 0.047434 -0.998802 0.012016
vn 0.003184 -0.999926 0.011730
vn 0.003184 -0.999926 0.011730
vn 0.047434 -0.997777 -0.046806
vn 0.047434 -0.997777 -0.046806
vn 0.047434 -0.997777 -0.046806
vn 0.003184 -0.999926 0.011730
vn 0.003184 -0.999926 0.011730
vn 0.003184 -0.999926 0.011730
vn 0.003184 -0.998882 -0.047157
vn 0.003184 -0.998882 -0.047157
vn 0.047434 -0.997777 -0.046806
vn 0.003184 -0.999926 0.011730
vn 0.003184 -0.999926 0.011730
vn 0.003184 -0.999926 0.011730
vn 0.003184 -0.999926 0.011730
vn 0.003184 -0.999926 0.011730
vn 0.003184 -0.999926 0.011730
vn 0.003184 -0.999926 0.011730
vn 0.021029 0.050016 -0.998527
vn 0.021029 0.050016 -0.998527
vn 0.021029 0.010776 -0.999721
vn 0.021029 0.010776 -0.999721
vn 0.021029 0.010776 -0.999721
vn 0.021029 0.050016 -0.998527
vn 0.045189 -0.049811 0.997736
vn 0.045126 -0.036893 0.998300
vn -0.046409 -0.036893 0.998241
vn -0.046409 -0.036893 0.998241
vn -0.046295 -0.049811 0.997685
vn 0.045189 -0.049811 0.997736

# texture coords: 240
vt 0.541977 0.991072
vt 0.541977 0.991072
vt 0.349367 0.991162
vt 0.349367 0.991162
vt 0.349367 0.991162
vt 0.541977 0.991072
vt 0.541977 0.991072
vt 0.541977 0.991072
vt 0.349367 0.991162
vt 0.349367 0.991162
vt 0.349367 0.991162
vt 0.541977 0.991072
vt 0.541977 0.991072
vt 0.538897 0.510882
vt 0.348782 0.508648
vt 0.348782 0.508648
vt 0.349367 0.991162
vt 0.541977 0.991072
vt 0.349367 0.991162
vt 0.349367 0.991162
vt 0.201780 0.994281
vt 0.201780 0.994281
vt 0.201780 0.994281
vt 0.349367 0.991162
vt 0.349367 0.991162
vt 0.349367 0.991162
vt 0.201780 0.994281
vt 0.201780 0.994281
vt 0.201780 0.994281
vt 0.349367 0.991162
vt 0.349367 0.991162
vt 0.348782 0.508648
vt 0.203688 0.511561
vt 0.203688 0.511561
vt 0.201780 0.994281
vt 0.349367 0.991162
vt 0.204486 0.510643
vt 0.204639 0.992271
vt 0.341080 0.510806
vt 0.341080 0.510806
vt 0.341080 0.510806
vt 0.204486 0.510643
vt 0.204639 0.992271
vt 0.204639 0.992271
vt 0.341080 0.510806
vt 0.341080 0.510806
vt 0.341080 0.510806
vt 0.204639 0.992271
vt 0.204639 0.992271
vt 0.204639 0.992260
vt 0.343727 0.988473
vt 0.343727 0.988473
vt 0.341080 0.510806
vt 0.204639 0.992271
vt 0.538897 0.510959
vt 0.541977 0.991072
vt 0.349367 0.991162
vt 0.349367 0.991162
vt 0.348782 0.508695
vt 0.538897 0.510959
vt 0.348782 0.508695
vt 0.349367 0.991162
vt 0.201780 0.994281
vt 0.201780 0.994281
vt 0.203688 0.511625
vt 0.348782 0.508695
vt 0.204639 0.992256
vt 0.204486 0.510643
vt 0.341080 0.510806
vt 0.341080 0.510806
vt 0.343727 0.988395
vt 0.204639 0.992256
vt 0.538897 0.510882
vt 0.541978 0.991464
vt 0.349366 0.990897
vt 0.349366 0.990897
vt 0.348782 0.508648
vt 0.538897 0.510882
vt 0.348782 0.508648
vt 0.349366 0.990897
vt 0.201778 0.993621
vt 0.201778 0.993621
vt 0.203688 0.511561
vt 0.348782 0.508648
vt 0.204639 0.992260
vt 0.204486 0.510615
vt 0.341080 0.510669
vt 0.341080 0.510669
vt 0.343727 0.988473
vt 0.204639 0.992260
vt 0.203688 0.511561
vt 0.203688 0.511561
vt 0.203688 0.511561
vt 0.203688 0.511561
vt 0.203688 0.511561
vt 0.203688 0.511561
vt 0.203688 0.511561
vt 0.203688 0.511561
vt 0.203688 0.511561
vt 0.203688 0.511561
vt 0.203688 0.511561
vt 0.203688 0.511561
vt 0.203688 0.511561
vt 0.203688 0.511561
vt 0.203688 0.511561
vt 0.203688 0.511561
vt 0.203688 0.511561
vt 0.203688 0.511561
vt 0.203688 0.511561
vt 0.203688 0.511561
vt 0.203688 0.511561
vt 0.203688 0.511561
vt 0.203688 0.511561
vt 0.203688 0.511561
vt 0.203688 0.511561
vt 0.203688 0.511561
vt 0.203688 0.511561
vt 0.203688 0.511561
vt 0.203688 0.511561
vt 0.203688 0.511561
vt 0.203688 0.511561
vt 0.203688 0.511561
vt 0.203688 0.511561
vt 0.203688 0.511561
vt 0.203688 0.511561
vt 0.203688 0.511561
vt 0.203688 0.511561
vt 0.203688 0.511561
vt 0.203688 0.511561
vt 0.203688 0.511561
vt 0.203688 0.511561
vt 0.203688 0.511561
vt 0.203688 0.511561
vt 0.203688 0.511561
vt 0.203688 0.511561
vt 0.203688 0.511561
vt 0.203688 0.511561
vt 0.203688 0.511561
vt 0.203688 0.511561
vt 0.203688 0.511561
vt 0.203688 0.511561
vt 0.203688 0.511561
vt 0.203688 0.511561
vt 0.203688 0.511561
vt 0.203688 0.511561
vt 0.203688 0.511561
vt 0.203688 0.511561
vt 0.203688 0.511561
vt 0.203688 0.511561
vt 0.203688 0.511561
vt 0.203688 0.511561
vt 0.203688 0.511561
vt 0.203688 0.511561
vt 0.203688 0.511561
vt 0.203688 0.511561
vt 0.203688 0.511561
vt 0.203688 0.511561
vt 0.203688 0.511561
vt 0.203688 0.511561
vt 0.203688 0.511561
vt 0.203688 0.511561
vt 0.203688 0.511561
vt 0.203688 0.511561
vt 0.203688 0.511561
vt 0.203688 0.511561
vt 0.203688 0.511561
vt 0.203688 0.511561
vt 0.203688 0.511561
vt 0.541977 0.991072
vt 0.541977 0.991072
vt 0.349367 0.991162
vt 0.349367 0.991162
vt 0.349367 0.991162
vt 0.541977 0.991072
vt 0.541977 0.991072
vt 0.541977 0.991072
vt 0.349367 0.991162
vt 0.349367 0.991162
vt 0.349367 0.991162
vt 0.541977 0.991072
vt 0.541977 0.991072
vt 0.538897 0.510882
vt 0.348782 0.508648
vt 0.348782 0.508648
vt 0.349367 0.991162
vt 0.541977 0.991072
vt 0.349367 0.991162
vt 0.349367 0.991162
vt 0.201780 0.994281
vt 0.201780 0.994281
vt 0.201780 0.994281
vt 0.349367 0.991162
vt 0.349367 0.991162
vt 0.349367 0.991162
vt 0.201780 0.994281
vt 0.201780 0.994281
vt 0.201780 0.994281
vt 0.349367 0.991162
vt 0.349367 0.991162
vt 0.348782 0.508648
vt 0.203688 0.511561
vt 0.203688 0.511561
vt 0.201780 0.994281
vt 0.349367 0.991162
vt 0.204486 0.510643
vt 0.204639 0.992271
vt 0.341080 0.510806
vt 0.341080 0.510806
vt 0.341080 0.510806
vt 0.204486 0.510643
vt 0.204639 0.992271
vt 0.204639 0.992271
vt 0.341080 0.510806
vt 0.341080 0.510806
vt 0.341080 0.510806
vt 0.204639 0.992271
vt 0.204639 0.992271
vt 0.204639 0.992260
vt 0.343727 0.988473
vt 0.343727 0.988473
vt 0.341080 0.510806
vt 0.204639 0.992271
vt 0.204639 0.992260
vt 0.204639 0.992260
vt 0.204639 0.992260
vt 0.204639 0.992260
vt 0.204639 0.992260
vt 0.204639 0.992260
vt 0.203270 0.518402
vt 0.205764 0.985577
vt 0.291248 0.985577
vt 0.291248 0.985577
vt 0.291248 0.521055
vt 0.203270 0.518402
vt 0.292359 0.521055
vt 0.204964 0.518402
vt 0.207458 0.985577
vt 0.207458 0.985577
vt 0.292359 0.985577
vt 0.292359 0.521055

# polygons: 80
usemtl ruinsdoodads1
f 4/1/1 4/2/2 6/3/3
f 6/4/4 6/5/5 4/6/6
f 4/7/7 4/8/8 6/9/9
f 6/10/10 6/11/11 4/12/12
f 4/13/13 3/14/14 5/15/15
f 5/16/16 6/17/17 4/18/18
f 6/19/19 6/20/20 2/21/21
f 2/22/22 2/23/23 6/24/24
f 6/25/25 6/26/26 2/27/27
f 2/28/28 2/29/29 6/30/30
f 6/31/31 5/32/32 1/33/33
f 1/34/34 2/35/35 6/36/36
f 9/37/37 8/38/38 11/39/39
f 11/40/40 11/41/41 9/42/42
f 8/43/43 8/44/44 11/45/45
f 11/46/46 11/47/47 8/48/48
f 8/49/49 7/50/50 10/51/51
f 10/52/52 11/53/53 8/54/54
f 14/55/55 15/56/56 17/57/57
f 17/58/58 16/59/59 14/60/60
f 16/61/61 17/62/62 12/63/63
f 12/64/64 13/65/65 16/66/66
f 19/67/67 18/68/68 21/69/69
f 21/70/70 20/71/71 19/72/72
f 24/73/73 25/74/74 27/75/75
f 27/76/76 26/77/77 24/78/78
f 26/79/79 27/80/80 23/81/81
f 23/82/82 22/83/83 26/84/84
f 28/85/85 29/86/86 31/87/87
f 31/88/88 30/89/89 28/90/90
f 22/91/91 22/92/92 22/93/93
f 22/94/94 22/95/95 22/96/96
f 22/97/97 22/98/98 22/99/99
f 22/100/100 22/101/101 22/102/102
f 22/103/103 22/104/104 22/105/105
f 22/106/106 22/107/107 22/108/108
f 22/109/109 22/110/110 22/111/111
f 22/112/112 22/113/113 22/114/114
f 22/115/115 22/116/116 22/117/117
f 22/118/118 22/119/119 22/120/120
f 22/121/121 22/122/122 22/123/123
f 22/124/124 22/125/125 22/126/126
f 22/127/127 22/128/128 22/129/129
f 22/130/130 22/131/131 22/132/132
f 22/133/133 22/134/134 22/135/135
f 22/136/136 22/137/137 22/138/138
f 22/139/139 22/140/140 22/141/141
f 22/142/142 22/143/143 22/144/144
f 22/145/145 22/146/146 22/147/147
f 22/148/148 22/149/149 22/150/150
f 22/151/151 22/152/152 22/153/153
f 22/154/154 22/155/155 22/156/156
f 22/157/157 22/158/158 22/159/159
f 22/160/160 22/161/161 22/162/162
f 22/163/163 22/164/164 22/165/165
f 22/166/166 22/167/167 22/168/168
f 35/169/169 35/170/170 37/171/171
f 37/172/172 37/173/173 35/174/174
f 35/175/175 35/176/176 37/177/177
f 37/178/178 37/179/179 35/180/180
f 35/181/181 34/182/182 36/183/183
f 36/184/184 37/185/185 35/186/186
f 37/187/187 37/188/188 33/189/189
f 33/190/190 33/191/191 37/192/192
f 37/193/193 37/194/194 33/195/195
f 33/196/196 33/197/197 37/198/198
f 37/199/199 36/200/200 32/201/201
f 32/202/202 33/203/203 37/204/204
f 40/205/205 39/206/206 42/207/207
f 42/208/208 42/209/209 40/210/210
f 39/211/211 39/212/212 42/213/213
f 42/214/214 42/215/215 39/216/216
f 39/217/217 38/218/218 41/219/219
f 41/220/220 42/221/221 39/222/222
f 38/223/223 38/224/224 38/225/225
f 38/226/226 38/227/227 38/228/228
f 45/229/229 46/230/230 43/231/231
f 43/232/232 44/233/233 45/234/234
f 49/235/235 47/236/236 48/237/237
f 48/238/238 50/239/239 49/240/240

# object end '3segs Cube'
