# created by: Biturn ver 0.88
# http://mirex.mypage.sk
# ------------------------------------
# 58 vertices, 80 polygons, 240 points, 1 materials


mtllib muroB30g.mtl

#-- object '3segs Cube' --
# 58 vertices, 80 polygons, 240 points

g 3segs Cube

# vertexs: 58
v -32.653599 22.191799 61.821098
v 32.659599 22.191799 87.974434
v -32.653599 22.191799 48.044102
v 32.659599 22.191799 74.197433
v -32.653599 8.256870 -0.211210
v -32.653599 8.256870 -0.211210
v 32.659599 8.256870 25.942122
v -32.653599 8.256870 25.955799
v 32.659599 8.256870 52.109131
v 32.659599 22.191799 87.974434
v 32.659599 -8.910070 87.974434
v 32.659599 -8.910070 74.197433
v 32.659599 22.191799 74.197433
v 32.659599 8.256870 25.942122
v 32.659599 -8.910070 25.942122
v 32.659599 -8.910070 52.109131
v 32.659599 8.256870 52.109131
v -32.653599 22.191799 61.821098
v -32.653599 -8.910070 61.821098
v -32.653599 22.191799 48.044102
v -32.653599 -8.910070 48.044102
v -32.653599 8.256870 -0.211210
v -32.653599 -8.910070 -0.211210
v -32.653599 8.256870 25.955799
v -32.653599 -8.910070 25.955799
v 32.659599 -8.910070 87.974434
v -32.653599 -8.910070 61.821098
v 32.659599 -8.910070 74.197433
v -32.653599 -8.910070 48.044102
v 32.659599 -8.910070 25.942122
v 32.659599 -8.910070 25.942122
v -32.653599 -8.910070 -0.211210
v 32.659599 -8.910070 52.109131
v -32.653599 -8.910070 25.955799
v 32.659599 -8.910070 25.942122
v -32.653599 -8.910070 -0.211210
v -32.653599 8.256870 -0.211210
v 32.659599 8.256870 25.942122
v -32.653599 -8.910070 61.821098
v 32.659599 -8.910070 87.974434
v -32.653599 22.191799 61.821098
v 32.659599 22.191799 87.974434
v -32.653599 8.256870 25.955799
v 32.659599 8.256870 52.109131
v -32.653599 22.191799 48.044102
v 32.659599 22.191799 74.197433
v 32.659599 -8.910070 52.109131
v 32.659599 8.256870 52.109131
v 32.659599 -8.910070 74.197433
v 32.659599 22.191799 74.197433
v -32.653599 8.256870 25.955799
v -32.653599 -8.910070 25.955799
v -32.653599 22.191799 48.044102
v -32.653599 -8.910070 48.044102
v 32.659599 -8.910070 52.109131
v -32.653599 -8.910070 25.955799
v 32.659599 -8.910070 74.197433
v -32.653599 -8.910070 48.044102

# normals: 240
vn 0.019998 0.996247 0.084216
vn 0.019998 0.996247 0.084216
vn 0.014466 0.999477 0.028929
vn 0.014466 0.999477 0.028929
vn 0.014466 0.999477 0.028929
vn 0.019998 0.996247 0.084216
vn 0.019998 0.996247 0.084216
vn 0.019998 0.996247 0.084216
vn 0.014466 0.999477 0.028929
vn 0.014466 0.999477 0.028929
vn 0.014466 0.999477 0.028929
vn 0.019998 0.996247 0.084216
vn 0.019998 0.996247 0.084216
vn 0.019998 0.996247 0.084216
vn 0.017052 0.999477 0.027484
vn 0.017052 0.999477 0.027484
vn 0.014466 0.999477 0.028929
vn 0.019998 0.996247 0.084216
vn 0.019998 0.999773 -0.007295
vn 0.019998 0.999773 -0.007295
vn 0.019998 0.999622 0.018878
vn 0.019998 0.999622 0.018878
vn 0.019998 0.999622 0.018878
vn 0.019998 0.999773 -0.007295
vn 0.019998 0.999773 -0.007295
vn 0.019998 0.999773 -0.007295
vn 0.019998 0.999622 0.018878
vn 0.019998 0.999622 0.018878
vn 0.019998 0.999622 0.018878
vn 0.019998 0.999773 -0.007295
vn 0.019998 0.999773 -0.007295
vn 0.019998 0.999773 -0.007295
vn 0.019998 0.999622 0.018878
vn 0.019998 0.999622 0.018878
vn 0.019998 0.999622 0.018878
vn 0.019998 0.999773 -0.007295
vn 0.997538 0.034505 0.061052
vn 0.996564 -0.055579 0.061404
vn 0.997283 -0.055579 0.048354
vn 0.997283 -0.055579 0.048354
vn 0.998252 0.034505 0.047990
vn 0.997538 0.034505 0.061052
vn 0.999366 0.034505 0.008762
vn 0.999827 0.016487 0.008567
vn 0.999750 0.016487 0.015111
vn 0.999750 0.016487 0.015111
vn 0.999287 0.034505 0.015302
vn 0.999366 0.034505 0.008762
vn -0.999152 -0.007791 0.040433
vn -0.999079 -0.014330 0.040433
vn -0.998806 -0.014249 0.046729
vn -0.998806 -0.014249 0.046729
vn -0.998878 -0.007712 0.046729
vn -0.999152 -0.007791 0.040433
vn -0.999162 -0.020929 -0.035170
vn -0.999278 -0.014389 -0.035170
vn -0.999663 -0.014503 0.021538
vn -0.999663 -0.014503 0.021538
vn -0.999547 -0.021046 0.021538
vn -0.999162 -0.020929 -0.035170
vn -0.998878 -0.007712 0.046729
vn -0.998878 -0.007712 0.046729
vn -0.998878 -0.007712 0.046729
vn -0.998878 -0.007712 0.046729
vn -0.998878 -0.007712 0.046729
vn -0.998878 -0.007712 0.046729
vn -0.998878 -0.007712 0.046729
vn -0.998878 -0.007712 0.046729
vn -0.998878 -0.007712 0.046729
vn -0.998878 -0.007712 0.046729
vn -0.998878 -0.007712 0.046729
vn -0.998878 -0.007712 0.046729
vn -0.998878 -0.007712 0.046729
vn -0.998878 -0.007712 0.046729
vn -0.998878 -0.007712 0.046729
vn -0.998878 -0.007712 0.046729
vn -0.998878 -0.007712 0.046729
vn -0.998878 -0.007712 0.046729
vn -0.998878 -0.007712 0.046729
vn -0.998878 -0.007712 0.046729
vn -0.998878 -0.007712 0.046729
vn -0.998878 -0.007712 0.046729
vn -0.998878 -0.007712 0.046729
vn -0.998878 -0.007712 0.046729
vn -0.998878 -0.007712 0.046729
vn -0.998878 -0.007712 0.046729
vn -0.998878 -0.007712 0.046729
vn -0.998878 -0.007712 0.046729
vn -0.998878 -0.007712 0.046729
vn -0.998878 -0.007712 0.046729
vn -0.998878 -0.007712 0.046729
vn -0.998878 -0.007712 0.046729
vn -0.998878 -0.007712 0.046729
vn -0.998878 -0.007712 0.046729
vn -0.998878 -0.007712 0.046729
vn -0.998878 -0.007712 0.046729
vn -0.998878 -0.007712 0.046729
vn -0.998878 -0.007712 0.046729
vn -0.998878 -0.007712 0.046729
vn -0.998878 -0.007712 0.046729
vn -0.998878 -0.007712 0.046729
vn -0.998878 -0.007712 0.046729
vn -0.998878 -0.007712 0.046729
vn -0.998878 -0.007712 0.046729
vn -0.998878 -0.007712 0.046729
vn -0.998878 -0.007712 0.046729
vn -0.998878 -0.007712 0.046729
vn -0.998878 -0.007712 0.046729
vn -0.998878 -0.007712 0.046729
vn -0.998878 -0.007712 0.046729
vn -0.998878 -0.007712 0.046729
vn -0.998878 -0.007712 0.046729
vn -0.998878 -0.007712 0.046729
vn -0.998878 -0.007712 0.046729
vn -0.998878 -0.007712 0.046729
vn -0.998878 -0.007712 0.046729
vn -0.998878 -0.007712 0.046729
vn -0.998878 -0.007712 0.046729
vn -0.998878 -0.007712 0.046729
vn -0.998878 -0.007712 0.046729
vn -0.998878 -0.007712 0.046729
vn -0.998878 -0.007712 0.046729
vn -0.998878 -0.007712 0.046729
vn -0.998878 -0.007712 0.046729
vn -0.998878 -0.007712 0.046729
vn -0.998878 -0.007712 0.046729
vn -0.998878 -0.007712 0.046729
vn -0.998878 -0.007712 0.046729
vn -0.998878 -0.007712 0.046729
vn -0.998878 -0.007712 0.046729
vn -0.998878 -0.007712 0.046729
vn -0.998878 -0.007712 0.046729
vn -0.998878 -0.007712 0.046729
vn -0.998878 -0.007712 0.046729
vn -0.998878 -0.007712 0.046729
vn -0.998878 -0.007712 0.046729
vn -0.998878 -0.007712 0.046729
vn -0.998878 -0.007712 0.046729
vn 0.047434 -0.997874 0.044689
vn 0.047434 -0.997874 0.044689
vn 0.043630 -0.998374 0.036695
vn 0.043630 -0.998374 0.036695
vn 0.043630 -0.998374 0.036695
vn 0.047434 -0.997874 0.044689
vn 0.047434 -0.997874 0.044689
vn 0.047434 -0.997874 0.044689
vn 0.043630 -0.998374 0.036695
vn 0.043630 -0.998374 0.036695
vn 0.043630 -0.998374 0.036695
vn 0.047434 -0.997874 0.044689
vn 0.047434 -0.997874 0.044689
vn 0.003184 -0.999007 0.044441
vn -0.003201 -0.999503 0.031358
vn -0.003201 -0.999503 0.031358
vn 0.043630 -0.998374 0.036695
vn 0.047434 -0.997874 0.044689
vn 0.047434 -0.998802 0.012016
vn 0.003184 -0.999926 0.011730
vn 0.047434 -0.997777 -0.046806
vn 0.047434 -0.997777 -0.046806
vn 0.047434 -0.997777 -0.046806
vn 0.047434 -0.998802 0.012016
vn 0.003184 -0.999926 0.011730
vn 0.003184 -0.999926 0.011730
vn 0.047434 -0.997777 -0.046806
vn 0.047434 -0.997777 -0.046806
vn 0.047434 -0.997777 -0.046806
vn 0.003184 -0.999926 0.011730
vn 0.003184 -0.999926 0.011730
vn 0.003184 -0.999926 0.011730
vn 0.003184 -0.998882 -0.047157
vn 0.003184 -0.998882 -0.047157
vn 0.047434 -0.997777 -0.046806
vn 0.003184 -0.999926 0.011730
vn 0.003184 -0.999926 0.011730
vn 0.003184 -0.999926 0.011730
vn 0.003184 -0.999926 0.011730
vn 0.003184 -0.999926 0.011730
vn 0.003184 -0.999926 0.011730
vn 0.003184 -0.999926 0.011730
vn 0.021029 0.050016 -0.998527
vn 0.021029 0.050016 -0.998527
vn 0.021029 0.010776 -0.999721
vn 0.021029 0.010776 -0.999721
vn 0.021029 0.010776 -0.999721
vn 0.021029 0.050016 -0.998527
vn 0.045189 -0.049811 0.997736
vn 0.045126 -0.036893 0.998300
vn -0.046409 -0.036893 0.998241
vn -0.046409 -0.036893 0.998241
vn -0.046295 -0.049811 0.997685
vn 0.045189 -0.049811 0.997736
vn 0.019998 0.999622 0.018878
vn 0.019998 0.999622 0.018878
vn 0.019998 0.996247 0.084216
vn 0.019998 0.996247 0.084216
vn 0.019998 0.996247 0.084216
vn 0.019998 0.999622 0.018878
vn 0.019998 0.999622 0.018878
vn 0.019998 0.999622 0.018878
vn 0.019998 0.996247 0.084216
vn 0.019998 0.996247 0.084216
vn 0.019998 0.996247 0.084216
vn 0.019998 0.999622 0.018878
vn 0.019998 0.999622 0.018878
vn 0.019998 0.999622 0.018878
vn 0.019998 0.996247 0.084216
vn 0.019998 0.996247 0.084216
vn 0.019998 0.996247 0.084216
vn 0.019998 0.999622 0.018878
vn 0.999287 0.034505 0.015302
vn 0.999750 0.016487 0.015111
vn 0.996564 -0.055579 0.061404
vn 0.996564 -0.055579 0.061404
vn 0.997538 0.034505 0.061052
vn 0.999287 0.034505 0.015302
vn -0.999547 -0.021046 0.021538
vn -0.999663 -0.014503 0.021538
vn -0.999079 -0.014330 0.040433
vn -0.999079 -0.014330 0.040433
vn -0.999152 -0.007791 0.040433
vn -0.999547 -0.021046 0.021538
vn 0.047434 -0.997777 -0.046806
vn 0.047434 -0.997777 -0.046806
vn 0.047434 -0.997874 0.044689
vn 0.047434 -0.997874 0.044689
vn 0.047434 -0.997874 0.044689
vn 0.047434 -0.997777 -0.046806
vn 0.047434 -0.997777 -0.046806
vn 0.047434 -0.997777 -0.046806
vn 0.047434 -0.997874 0.044689
vn 0.047434 -0.997874 0.044689
vn 0.047434 -0.997874 0.044689
vn 0.047434 -0.997777 -0.046806
vn 0.047434 -0.997777 -0.046806
vn 0.003184 -0.998882 -0.047157
vn 0.003184 -0.999007 0.044441
vn 0.003184 -0.999007 0.044441
vn 0.047434 -0.997874 0.044689
vn 0.047434 -0.997777 -0.046806

# texture coords: 240
vt 0.349367 0.991162
vt 0.349367 0.991162
vt 0.201780 0.994281
vt 0.201780 0.994281
vt 0.201780 0.994281
vt 0.349367 0.991162
vt 0.349367 0.991162
vt 0.349367 0.991162
vt 0.201780 0.994281
vt 0.201780 0.994281
vt 0.201780 0.994281
vt 0.349367 0.991162
vt 0.349367 0.991162
vt 0.348782 0.508648
vt 0.203688 0.511561
vt 0.203688 0.511561
vt 0.201780 0.994281
vt 0.349367 0.991162
vt 0.204486 0.510643
vt 0.204639 0.992271
vt 0.341080 0.510806
vt 0.341080 0.510806
vt 0.341080 0.510806
vt 0.204486 0.510643
vt 0.204639 0.992271
vt 0.204639 0.992271
vt 0.341080 0.510806
vt 0.341080 0.510806
vt 0.341080 0.510806
vt 0.204639 0.992271
vt 0.204639 0.992271
vt 0.204639 0.992260
vt 0.343727 0.988473
vt 0.343727 0.988473
vt 0.341080 0.510806
vt 0.204639 0.992271
vt 0.348782 0.508695
vt 0.349367 0.991162
vt 0.201780 0.994281
vt 0.201780 0.994281
vt 0.203688 0.511625
vt 0.348782 0.508695
vt 0.204639 0.992256
vt 0.204486 0.510643
vt 0.341080 0.510806
vt 0.341080 0.510806
vt 0.343727 0.988395
vt 0.204639 0.992256
vt 0.348782 0.508648
vt 0.349366 0.990897
vt 0.201778 0.993621
vt 0.201778 0.993621
vt 0.203688 0.511561
vt 0.348782 0.508648
vt 0.204639 0.992260
vt 0.204486 0.510615
vt 0.341080 0.510669
vt 0.341080 0.510669
vt 0.343727 0.988473
vt 0.204639 0.992260
vt 0.203688 0.511561
vt 0.203688 0.511561
vt 0.203688 0.511561
vt 0.203688 0.511561
vt 0.203688 0.511561
vt 0.203688 0.511561
vt 0.203688 0.511561
vt 0.203688 0.511561
vt 0.203688 0.511561
vt 0.203688 0.511561
vt 0.203688 0.511561
vt 0.203688 0.511561
vt 0.203688 0.511561
vt 0.203688 0.511561
vt 0.203688 0.511561
vt 0.203688 0.511561
vt 0.203688 0.511561
vt 0.203688 0.511561
vt 0.203688 0.511561
vt 0.203688 0.511561
vt 0.203688 0.511561
vt 0.203688 0.511561
vt 0.203688 0.511561
vt 0.203688 0.511561
vt 0.203688 0.511561
vt 0.203688 0.511561
vt 0.203688 0.511561
vt 0.203688 0.511561
vt 0.203688 0.511561
vt 0.203688 0.511561
vt 0.203688 0.511561
vt 0.203688 0.511561
vt 0.203688 0.511561
vt 0.203688 0.511561
vt 0.203688 0.511561
vt 0.203688 0.511561
vt 0.203688 0.511561
vt 0.203688 0.511561
vt 0.203688 0.511561
vt 0.203688 0.511561
vt 0.203688 0.511561
vt 0.203688 0.511561
vt 0.203688 0.511561
vt 0.203688 0.511561
vt 0.203688 0.511561
vt 0.203688 0.511561
vt 0.203688 0.511561
vt 0.203688 0.511561
vt 0.203688 0.511561
vt 0.203688 0.511561
vt 0.203688 0.511561
vt 0.203688 0.511561
vt 0.203688 0.511561
vt 0.203688 0.511561
vt 0.203688 0.511561
vt 0.203688 0.511561
vt 0.203688 0.511561
vt 0.203688 0.511561
vt 0.203688 0.511561
vt 0.203688 0.511561
vt 0.203688 0.511561
vt 0.203688 0.511561
vt 0.203688 0.511561
vt 0.203688 0.511561
vt 0.203688 0.511561
vt 0.203688 0.511561
vt 0.203688 0.511561
vt 0.203688 0.511561
vt 0.203688 0.511561
vt 0.203688 0.511561
vt 0.203688 0.511561
vt 0.203688 0.511561
vt 0.203688 0.511561
vt 0.203688 0.511561
vt 0.203688 0.511561
vt 0.203688 0.511561
vt 0.203688 0.511561
vt 0.203688 0.511561
vt 0.349367 0.991162
vt 0.349367 0.991162
vt 0.201780 0.994281
vt 0.201780 0.994281
vt 0.201780 0.994281
vt 0.349367 0.991162
vt 0.349367 0.991162
vt 0.349367 0.991162
vt 0.201780 0.994281
vt 0.201780 0.994281
vt 0.201780 0.994281
vt 0.349367 0.991162
vt 0.349367 0.991162
vt 0.348782 0.508648
vt 0.203688 0.511561
vt 0.203688 0.511561
vt 0.201780 0.994281
vt 0.349367 0.991162
vt 0.204486 0.510643
vt 0.204639 0.992271
vt 0.341080 0.510806
vt 0.341080 0.510806
vt 0.341080 0.510806
vt 0.204486 0.510643
vt 0.204639 0.992271
vt 0.204639 0.992271
vt 0.341080 0.510806
vt 0.341080 0.510806
vt 0.341080 0.510806
vt 0.204639 0.992271
vt 0.204639 0.992271
vt 0.204639 0.992260
vt 0.343727 0.988473
vt 0.343727 0.988473
vt 0.341080 0.510806
vt 0.204639 0.992271
vt 0.204639 0.992260
vt 0.204639 0.992260
vt 0.204639 0.992260
vt 0.204639 0.992260
vt 0.204639 0.992260
vt 0.204639 0.992260
vt 0.203270 0.518402
vt 0.205764 0.985577
vt 0.291248 0.985577
vt 0.291248 0.985577
vt 0.291248 0.521055
vt 0.203270 0.518402
vt 0.292359 0.521055
vt 0.204964 0.518402
vt 0.207458 0.985577
vt 0.207458 0.985577
vt 0.292359 0.985577
vt 0.292359 0.521055
vt 0.731503 0.996377
vt 0.731503 0.996377
vt 0.551362 0.996467
vt 0.551362 0.996467
vt 0.551362 0.996467
vt 0.731503 0.996377
vt 0.731503 0.996377
vt 0.731503 0.996377
vt 0.551362 0.996467
vt 0.551362 0.996467
vt 0.551362 0.996467
vt 0.731503 0.996377
vt 0.731503 0.996377
vt 0.730917 0.757566
vt 0.548283 0.757985
vt 0.548283 0.757985
vt 0.551362 0.996467
vt 0.731503 0.996377
vt 0.730917 0.757643
vt 0.731503 0.996377
vt 0.551362 0.996467
vt 0.551362 0.996467
vt 0.548283 0.758032
vt 0.730917 0.757643
vt 0.730917 0.757566
vt 0.731504 0.996769
vt 0.551361 0.996202
vt 0.551361 0.996202
vt 0.548283 0.757985
vt 0.730917 0.757566
vt 0.731503 0.996377
vt 0.731503 0.996377
vt 0.551362 0.996467
vt 0.551362 0.996467
vt 0.551362 0.996467
vt 0.731503 0.996377
vt 0.731503 0.996377
vt 0.731503 0.996377
vt 0.551362 0.996467
vt 0.551362 0.996467
vt 0.551362 0.996467
vt 0.731503 0.996377
vt 0.731503 0.996377
vt 0.730917 0.757566
vt 0.548283 0.757985
vt 0.548283 0.757985
vt 0.551362 0.996467
vt 0.731503 0.996377

# polygons: 80
usemtl ruinsdoodads1
f 4/1/1 4/2/2 2/3/3
f 2/4/4 2/5/5 4/6/6
f 4/7/7 4/8/8 2/9/9
f 2/10/10 2/11/11 4/12/12
f 4/13/13 3/14/14 1/15/15
f 1/16/16 2/17/17 4/18/18
f 7/19/19 6/20/20 9/21/21
f 9/22/22 9/23/23 7/24/24
f 6/25/25 6/26/26 9/27/27
f 9/28/28 9/29/29 6/30/30
f 6/31/31 5/32/32 8/33/33
f 8/34/34 9/35/35 6/36/36
f 12/37/37 13/38/38 10/39/39
f 10/40/40 11/41/41 12/42/42
f 15/43/43 14/44/44 17/45/45
f 17/46/46 16/47/47 15/48/48
f 20/49/49 21/50/50 19/51/51
f 19/52/52 18/53/53 20/54/54
f 22/55/55 23/56/56 25/57/57
f 25/58/58 24/59/59 22/60/60
f 18/61/61 18/62/62 18/63/63
f 18/64/64 18/65/65 18/66/66
f 18/67/67 18/68/68 18/69/69
f 18/70/70 18/71/71 18/72/72
f 18/73/73 18/74/74 18/75/75
f 18/76/76 18/77/77 18/78/78
f 18/79/79 18/80/80 18/81/81
f 18/82/82 18/83/83 18/84/84
f 18/85/85 18/86/86 18/87/87
f 18/88/88 18/89/89 18/90/90
f 18/91/91 18/92/92 18/93/93
f 18/94/94 18/95/95 18/96/96
f 18/97/97 18/98/98 18/99/99
f 18/100/100 18/101/101 18/102/102
f 18/103/103 18/104/104 18/105/105
f 18/106/106 18/107/107 18/108/108
f 18/109/109 18/110/110 18/111/111
f 18/112/112 18/113/113 18/114/114
f 18/115/115 18/116/116 18/117/117
f 18/118/118 18/119/119 18/120/120
f 18/121/121 18/122/122 18/123/123
f 18/124/124 18/125/125 18/126/126
f 18/127/127 18/128/128 18/129/129
f 18/130/130 18/131/131 18/132/132
f 18/133/133 18/134/134 18/135/135
f 18/136/136 18/137/137 18/138/138
f 29/139/139 29/140/140 27/141/141
f 27/142/142 27/143/143 29/144/144
f 29/145/145 29/146/146 27/147/147
f 27/148/148 27/149/149 29/150/150
f 29/151/151 28/152/152 26/153/153
f 26/154/154 27/155/155 29/156/156
f 32/157/157 31/158/158 34/159/159
f 34/160/160 34/161/161 32/162/162
f 31/163/163 31/164/164 34/165/165
f 34/166/166 34/167/167 31/168/168
f 31/169/169 30/170/170 33/171/171
f 33/172/172 34/173/173 31/174/174
f 30/175/175 30/176/176 30/177/177
f 30/178/178 30/179/179 30/180/180
f 37/181/181 38/182/182 35/183/183
f 35/184/184 36/185/185 37/186/186
f 41/187/187 39/188/188 40/189/189
f 40/190/190 42/191/191 41/192/192
f 44/193/193 44/194/194 46/195/195
f 46/196/196 46/197/197 44/198/198
f 44/199/199 44/200/200 46/201/201
f 46/202/202 46/203/203 44/204/204
f 44/205/205 43/206/206 45/207/207
f 45/208/208 46/209/209 44/210/210
f 47/211/211 48/212/212 50/213/213
f 50/214/214 49/215/215 47/216/216
f 51/217/217 52/218/218 54/219/219
f 54/220/220 53/221/221 51/222/222
f 56/223/223 56/224/224 58/225/225
f 58/226/226 58/227/227 56/228/228
f 56/229/229 56/230/230 58/231/231
f 58/232/232 58/233/233 56/234/234
f 56/235/235 55/236/236 57/237/237
f 57/238/238 58/239/239 56/240/240

# object end '3segs Cube'
